All The Episodes of The World God Only Knows aka Kami Nomi zo Shiru Sekai (Ep 1-12) at 480p Video Quality :)

Please seed after you download.

And I've put up a folder named Opening and Ending containing the opening and ending theme songs...you can download them first for the quality of the videos :)

--------------------------------------------------------------------------------

Cover
--------------------------------------------------------------------------------
       
http://img28.imageshack.us/img28/6913/theworldgodonlyknows2cu.jpg
--------------------------------------------------------------------------------

Info
---------------------------------------------------------------------------------

General
--------

Format                                   : Matroska
Format version                           : Version 2
File size                                : 67.0 MiB
Duration                                 : 20mn 35s
Overall bit rate mode                    : Variable
Overall bit rate                         : 455 Kbps
Writing application                      : HandBrake 4907svn
Writing library                          : libmkv 0.6.5

Video
---------------------------------------

ID                                       : 1
Format                                   : AVC
Format/Info                              : Advanced Video Codec
Format profile                           : High@L5.0
Format settings, CABAC                   : Yes
Format settings, ReFrames                : 16 frames
Codec ID                                 : V_MPEG4/ISO/AVC
Duration                                 : 20mn 35s
Bit rate                                 : 398 Kbps
Width                                    : 1 280 pixels
Height                                   : 720 pixels
Display aspect ratio                     : 16:9
Frame rate mode                          : Constant
Frame rate                               : 23.976 fps
Color space                              : YUV
Chroma subsampling                       : 4:2:0
Bit depth                                : 8 bits
Scan type                                : Progressive
Bits/(Pixel*Frame)                       : 0.018
Stream size                              : 58.6 MiB (87%)
Writing library                          : x264 core 125
Language                                 : English
Default                                  : Yes
Forced                                   : No
Color primaries                          : BT.709
Transfer characteristics                 : BT.709
Matrix coefficients                      : BT.709

Audio
----------------------------------

ID                                       : 2
Format                                   : Vorbis
Format settings, Floor                   : 1
Codec ID                                 : A_VORBIS
Duration                                 : 20mn 35s
Bit rate mode                            : Variable
Bit rate                                 : 48.0 Kbps
Channel(s)                               : 1 channel
Sampling rate                            : 48.0 KHz
Compression mode                         : Lossy
Stream size                              : 7.07 MiB (11%)
Writing library                          : aoTuV 20110424 (UTC 2011-04-24)
Language                                 : Japanese
Default                                  : Yes
Forced                                   : No
Writing application                      : HandBrake


----------------------------------------------------------------------------------

Screenshots
----------------------------------------------------------------------------------
             
http://img87.imageshack.us/img87/8090/twogk1.png
             
http://img443.imageshack.us/img443/5980/twogk2.png
             
http://img856.imageshack.us/img856/6899/twogk3.png
             
http://img688.imageshack.us/img688/2271/twogk4.png
             
http://img705.imageshack.us/img705/2444/twogk5.png
 
http://img854.imageshack.us/img854/56/twogk6.png
   

----------------------------------------------------------------------------------

Story
----------------------------------------------------------------------------------

Dating sim master Keima Katsuragi wants nothing more than to immerse himself in the 2D world, chasing digital girlfriends. But when the so-called "Capturing God" answers a mysterious email from an unknown sender, Keima finds himself chasing down real-life ladies in an attempt to help the peppy demon Elsie de Lute Irma capture "lost souls" escaped from the depths of hell. Now, lest the explosive collar around his neck detonate, Keima must convince various girls to fall in love with him in order to scare out the souls hiding in their hearts.

----------------------------------------------------------------------------------

Thank you for downloading. 

Enjoy Watching :)				
						